<?xml version="1.0" encoding="UTF-8"?>
<svg id="Layer_2" data-name="Layer 2" xmlns="http://www.w3.org/2000/svg" xmlns:xlink="http://www.w3.org/1999/xlink" viewBox="0 0 379.73 294.97">
  <defs>
    <style>
      .cls-1 {
        fill: url(#linear-gradient-2);
      }

      .cls-2 {
        fill: url(#linear-gradient-3);
      }

      .cls-3 {
        fill: url(#linear-gradient);
      }
    </style>
    <linearGradient id="linear-gradient" x1="162.82" y1="197.21" x2="267.36" y2="197.21" gradientUnits="userSpaceOnUse">
      <stop offset="0" stop-color="#008aef"/>
      <stop offset="1" stop-color="#00b4fa"/>
    </linearGradient>
    <linearGradient id="linear-gradient-2" x1="180.95" y1="40.91" x2="379.73" y2="40.91" xlink:href="#linear-gradient"/>
    <linearGradient id="linear-gradient-3" x1="0" y1="147.49" x2="170.3" y2="147.49" gradientUnits="userSpaceOnUse">
      <stop offset="0" stop-color="#005ae2"/>
      <stop offset="1" stop-color="#0088ef"/>
    </linearGradient>
  </defs>
  <g id="Layer_1-2" data-name="Layer 1">
    <path class="cls-3" d="M267.35,102.4l-20.21,188.25c-.26,2.46-2.34,4.33-4.82,4.33h-74.65c-2.84,0-5.07-2.43-4.83-5.26l16.14-187.82c.12-1.39,1.28-2.44,2.65-2.44h83.06c1.58,0,2.83,1.37,2.65,2.95Z"/>
    <path class="cls-1" d="M379.73,8.57h0c0,40.45-32.79,73.24-73.24,73.24h-122.73c-1.65,0-2.94-1.41-2.8-3.05l4.4-51.15c1.34-15.62,14.41-27.61,30.08-27.61h155.72c4.73,0,8.57,3.84,8.57,8.57Z"/>
    <path class="cls-2" d="M170.28,8l-24.28,282.54c-.22,2.51-2.31,4.43-4.83,4.43h-69.54c-2.88,0-5.13-2.5-4.82-5.37l21.75-202.44c.32-2.87-1.93-5.36-4.82-5.36H2.54c-2.34,0-3.43-2.9-1.67-4.43L87.04,1.83c1.35-1.18,3.08-1.83,4.87-1.83h71.04c4.31,0,7.7,3.69,7.33,8Z"/>
  </g>
</svg>